<svg version="1" xmlns="http://www.w3.org/2000/svg" width="290" height="150" viewBox="0 0 290 150">
  <path fill="#211915" d="M152 40s-1-9 4-14c4-5 5-4 5-4s0 2 4 2l4-1 1 2c0 2 2-6-2-11 0 0 0-7-5-8-6-2-13 0-16 8-4 9-7 19-6 25l6 2 5-1z"/>
  <path fill="#211915" d="M286 126c-2-5-28-32-28-32 5 5 31 18 31 18l-31-29c6 4 27 11 27 11s-40-34-59-43-22-8-49-2-26-9-26-9l-6 2-6-2s2 15-25 9-31-7-50 2S6 94 6 94s21-7 27-11L2 112s26-13 31-18c0 0-26 27-27 32 0 0 26-17 33-24-4 5-22 27-24 33l33-28s-18 27-19 34l27-30-14 27v1c-1 5 16-19 22-27l-10 23s12-13 18-23l-3 12s8-8 10-13l-1 9s8-8 8-12v6s10-12 22-16 20-3 20-3 2 9 3 11c0 0-7 11-6 16 0 0 3-4 5-4l-2 8 6-5 1 10 3 2 4-6 2 5 1-4 1 4 3-5 3 6 3-2 1-10 6 5c1-1-2-8-2-8 3 0 6 4 6 4 0-5-7-16-7-16 2-2 3-11 3-11s8-1 20 3 23 16 23 16l-1-6c1 4 9 12 9 12l-1-9c2 5 10 13 10 13l-3-12c5 10 18 23 18 23l-10-23c6 8 23 32 22 27v-1l-14-27c5 8 27 30 27 30-1-7-19-34-19-34l33 28c-1-6-20-28-24-33 7 7 34 24 34 24z"/>
  <path fill="#FFF" stroke="#211915" stroke-miterlimit="10" d="M141 38s-5 0-5 2c0 3 4 5 11 6 7 0 10-2 10-4s-2-4-5-3c0 0-1 2-5 1-4 0-6-2-6-2z"/>
  <path fill="#FFF" d="M162 18l3 1 2 1 2 2 1 1-1-6-2-2s-5 0-5 3l-1 3 4 2h4l-3-2-4-3z"/>
  <path fill="#BE0411" d="M157 3s1-3 4-1l3 3c1 1 3 1 4 4 0 2-1 3-3 2l-4-3-4-3V3z"/>
  <circle fill="#FFF" cx="162" cy="13" r="2"/>
  <circle fill="#211915" cx="162" cy="13" r="1"/>
  <path fill="#211915" d="M140 125v12l1 4-1 1-2 1h-2l-1 3s1 1-1 2l-6 1c-2 0-6-2-3-7l6-7v-6l1-4 4-1 4 1z"/>
  <path fill="#FFF" d="M130 140l4-5 3-3-1-5h-4v4l-1 5c-1 1-4 3-3 4h2z"/>
  <path fill="none" stroke="#211915" stroke-miterlimit="10" d="M128 139h3l-1-2h3l-2-2 4-1-4-1v1l6-1s-1-2-3-2h-2v-2h2l4 1M134 126s-3 4-5 2c-1-1 4-3 5-2 0 0 4 3 5 2s-1-3-3-3l-2 1z"/>
  <path fill="none" stroke="#FFF" stroke-miterlimit="10" d="M134 126s-3 4-5 2c-1-1 4-3 5-2 0 0 4 3 5 2s-1-3-3-3l-2 1z"/>
  <g>
    <path fill="#211915" d="M151 125v12 4l1 1 1 1h2l1 3 1 2 6 1c3 0 7-2 3-7-4-6-5-5-5-7l-1-6-1-4-3-1-5 1z"/>
    <path fill="#FFF" d="M162 140l-5-5-2-3v-5h4l1 4 1 5 3 4h-2z"/>
    <path fill="none" stroke="#211915" stroke-miterlimit="10" d="M163 139h-3l2-2h-3l1-2-4-1 4-1v1l-5-1 2-2h3v-2h-2l-4 1M157 126s4 4 5 2c1-1-4-3-4-2-1 0-4 3-5 2s0-3 2-3l2 1z"/>
    <path fill="none" stroke="#FFF" stroke-miterlimit="10" d="M157 126s4 4 5 2c1-1-4-3-4-2-1 0-4 3-5 2s0-3 2-3l2 1z"/>
  </g>
  <g fill="#FFF">
    <path d="M104 67l3 3h-1l-1 1-3 2-3 1-6-1-3-1-1-4v-5c1-2 3-4 7-5h3l3 1h2l-1 3h-1l-1-1h-4l-4 2-1 4c0 2 1 3 3 4h4a8 8 0 0 0 5-3v-1zM115 55c3 0 5 0 7 2l3 5-1 4c-1 3-4 4-7 5-3 0-5 0-7-2l-2-2a8 8 0 0 1 0-7c1-3 4-4 7-5zm0 3l-3 2c-1 1-2 2-1 4l2 3 4 1 3-1 1-2v-3l-2-3-4-1zM131 59v9l1 1h-4V55h-1v-1h5v2l9 8v-9l-1-1h4v14l1 1h-5v-1-1l-9-8zM148 68l1-13-1-1h8l5 1 3 3v4l-2 6-3 1h-12l1-1zm3-1h5l3-1 2-4-1-4-2-1h-2l-4-1-1 11zM176 55l6 3c2 2 2 4 2 6l-2 4c-1 3-4 4-8 3l-6-3-1-3v-3l1-4c2-2 5-3 8-3zm0 3l-4 1-2 4 1 4 4 2 3-1 2-2 1-2c0-2 0-3-2-4l-3-2zM190 67l-1 5v1h1l-5-1h1v-1l3-12v-1h-1l1-1 9 3h2l2 2 1 1v2c-1 3-2 4-5 4l2 5 1 1v1l-5-1v-1h1l-1-1-2-5-4-1zm1-2l5 1h2l2-1-1-2-1-1h-1l-5-1-1 4z"/>
    <g>
      <path d="M125 83l3 3h-1l-1 1-3 1-3 1-6-1-3-2-1-4 1-5c2-2 4-3 7-3h3l4 1h2l-2 3-1-1h-1l-4-1-4 2-2 4 3 4 4 1a8 8 0 0 0 5-3v-1zM140 84h-7l-1 2v1l1 1h-5l1-1v-1l5-11v-1-1l5-1v2l6 12 1 1-5 1v-1h1l-1-1-1-2zm-1-2l-2-6-3 6h5zM151 81v6h1v1h-5v-1l1-1V74v-1h-1v-1l14 1 1-1v4h-1v-1h-10v4h7v-1h1l-1 4v-1h-7zM167 82v4l10 1 1-1v1l-1 3h-1l-13-2 1-1 1-13-1-1 14 1h1v4h-1v-1h-1l-9-1v4h7v3h-1l-7-1z"/>
    </g>
  </g>
</svg>
