<svg version="1" xmlns="http://www.w3.org/2000/svg" width="116" height="38" viewBox="0 0 116 38">
  <g fill="#FFF">
    <path d="M16 15l3 2h-1l-1 1-3 2-3 1H5l-2-2-2-3v-6l7-4h7l1 1V6h1l-2 4V9h-1l-1-1H9l-4 2-1 5 3 3 4 1a8 8 0 0 0 5-3v-1zM28 3c2-1 4 0 6 1s3 3 3 6v4c-2 2-4 4-8 4-2 1-4 0-6-1l-2-3-1-3V7c2-2 4-4 8-4zm0 2l-4 2-1 4a5 5 0 0 0 6 5l4-2 1-2v-2l-2-4-4-1zM44 6v10h1v1h-5l1-1-1-13V2l5-1v1h-1l1 1 8 8V2h-1V1h5l-1 1 1 13v1h-4l-1-1-8-9zM61 15V2 1h8l4 1 3 3 1 4c0 3-1 5-3 6l-2 1-4 1-8-1h1v-1zm3-1h7c2-1 3-2 3-5l-1-4-2-1h-6l-1 10zM89 3c3 0 5 1 6 3 2 1 2 4 2 6l-2 4c-2 2-4 3-8 3l-6-3-1-3a8 8 0 0 1 1-7c2-3 5-4 8-3zm0 2l-4 1-2 4 1 4 4 2 3-1 2-2 1-2-2-4-3-2zM103 15l-1 5h1v1l-5-1v-1h1l3-13-1-1 10 2 2 1 2 1 1 2v2c-1 2-2 3-5 3l2 5 1 2v1l-5-2h1l-1-1-2-5-4-1zm1-3l5 1 2 1c1 0 0 0 0 0l2-2-1-2h-1l-1-1-5-1-1 4z"/>
    <g>
      <path d="M38 31l2 3h-2l-3 2-3 1-6-1-2-3-1-3c-1-2 0-4 1-5 1-2 3-4 7-4h3l3 1 1 1 1-1-2 4v-1l-1-1h-5l-4 1-1 4 2 4 4 1a8 8 0 0 0 5-2l1-1zM53 31l-7 1-1 2v1l-5 1v-1h1l1-1 5-12v-1l-1-1h6l-1 1v1l7 11v1l1 1h-6l1-1v-1l-1-2zm-1-2l-3-5-2 5h5zM64 29v6h-4v-1l1-13v-1h-1 15v4h-1v-1l-10-1v4h7v3h-7zM80 29v5l9 1h1v-1h1l-1 4v-1h-1l-14-1v-1h1l2-13v-1h-1v-1l14 2v-1h1l-1 4-1-1-9-1-1 4 7 1v-1h1l-1 4v-1h-1l-6-1z"/>
    </g>
  </g>
</svg>
